<svg height="512pt" viewBox="0 0 512 512" width="512pt" xmlns="http://www.w3.org/2000/svg"><path d="m334.324219 164.269531 10.613281 10.609375-38.027344 38.015625-5.675781-5.675781-67.121094 13.429688-53.113281 82.28125v57.070312h57.113281l82.25-53.085938 13.433594-67.132812-5.675781-5.675781 38.03125-38.019531 10.609375 10.601562 135.238281-135.265625-42.4375-42.421875zm0 0"/><path d="m151 346.933594c28.472656-88.09375 1.941406-129.753906-16.699219-146.703125-23.1875-21.09375-57.394531-26.222657-87.070312-13.097657-28.945313 12.789063-47.230469 39.523438-47.230469 71.5 0 16.699219 7.410156 26.835938 13.621094 32.402344 23.585937 21.136719 77.363281 9.285156 77.378906-36.035156h-30c0 13.269531-10.691406 16.816406-17.007812 16.816406-3.734376 0-8.132813-1.144531-10.359376-3.121094-2.402343-2.167968-3.632812-5.550781-3.632812-10.0625 0-28.460937 20.835938-40.296874 29.359375-44.0625 18.882813-8.351562 40.355469-5.257812 54.753906 7.851563 21.410157 19.464844 24.992188 58.417969 10.667969 107.578125h-124.78125v182h512v-122h-361zm0 0"/><path d="m239.035156 115.253906c38.21875-19.117187 61.964844-57.523437 61.964844-100.253906v-15h-30v15c0 31.289062-17.386719 59.429688-45.382812 73.417969l-6.328126 3.164062 13.421876 26.835938zm0 0"/><path d="m497.382812 271.582031 6.328126-3.164062-13.421876-26.835938-6.324218 3.164063c-38.21875 19.117187-61.964844 57.523437-61.964844 100.253906h30c0-31.289062 17.386719-59.429688 45.382812-73.417969zm0 0"/><path d="m121 135h30c0-31.289062 17.386719-59.429688 45.382812-73.417969l6.328126-3.164062-13.421876-26.835938-6.324218 3.164063c-38.21875 19.117187-61.964844 57.523437-61.964844 100.253906zm0 0"/></svg>