<?xml version="1.0" encoding="utf-8"?>
<!-- Generator: Adobe Illustrator 23.0.1, SVG Export Plug-In . SVG Version: 6.00 Build 0)  -->
<svg version="1.1" id="Layer_1" xmlns="http://www.w3.org/2000/svg" xmlns:xlink="http://www.w3.org/1999/xlink" x="0px" y="0px"
	 viewBox="0 0 150 150" style="enable-background:new 0 0 150 150;" xml:space="preserve">
<path d="M114.1,104.8C114.1,104.8,114.1,104.9,114.1,104.8L114.1,104.8l-3.9,3.8c-5,5-12.2,7.1-19.1,5.5c-6.9-1.9-13.5-4.8-19.5-8.8
	c-5.6-3.6-10.7-7.7-15.4-12.4C51.9,88.7,48,84,44.6,79C41,73.6,38,67.7,36,61.5c-2.4-7.3-0.4-15.3,5.1-20.7l4.5-4.5
	c1.3-1.3,3.3-1.3,4.5,0c0,0,0,0,0,0l14.2,14.2c1.3,1.3,1.3,3.3,0,4.5c0,0,0,0,0,0L56,63.4c-2.4,2.4-2.7,6.1-0.7,8.9
	c3,4.1,6.4,8,10,11.7c4.1,4.1,8.5,7.8,13.2,11.1c2.7,1.9,6.4,1.6,8.8-0.8l8.1-8.2c1.3-1.3,3.3-1.3,4.5,0c0,0,0,0,0,0l14.2,14.3
	C115.3,101.6,115.3,103.6,114.1,104.8z"/>
</svg>
